<?xml version="1.0" encoding="utf-8"?>
<!-- Svg Vector Icons : http://www.onlinewebfonts.com/icon -->
<!DOCTYPE svg PUBLIC "-//W3C//DTD SVG 1.1//EN" "http://www.w3.org/Graphics/SVG/1.1/DTD/svg11.dtd">
<svg version="1.1" xmlns="http://www.w3.org/2000/svg" xmlns:xlink="http://www.w3.org/1999/xlink" x="0px" y="0px" viewBox="0 0 1000 1000" enable-background="new 0 0 1000 1000" xml:space="preserve">
<metadata> Svg Vector Icons : http://www.onlinewebfonts.com/icon </metadata>
<g><g transform="translate(0.000000,512.000000) scale(0.100000,-0.100000)"><path d="M4368.4,3555.7L1334.6,2093.4l-5.7-248.8l-5.7-250.7h260.3h258.4v-363.7V866.5h-363.7h-363.7V493.2V120h373.2h373.2v373.2v373.2h67h67V493.2V120h373.2h373.2v373.2v373.2h-373.2h-373.2v363.7v363.7h2373.4h2373.4v-258.4V1077h335h335v-2928.5V-4780h392.4h392.4v2928.5V1077h363.7h363.7v258.4v258.4h488.1H9900v248.8v248.8h-488.1h-488.1v258.4v258.4h-363.7h-363.7v1205.9V5020l-396.2-1.9l-398.1-1.9L4368.4,3555.7z M7411.7,3622.7V2608.3h-335h-335v-258.4v-258.4l-2358.1,1.9l-2360,1.9l143.6,68.9c453.6,220.1,5217.7,2473,5231.1,2473C7406,4637.2,7411.7,4181.6,7411.7,3622.7z"/><path d="M100-1851.5V-4780h1100.6h1100.6v1722.7v1722.7h-727.3H846.5v1205.9V1077H473.2H100V-1851.5z"/><path d="M3526.2-1956.8V-4780H5134h1607.8v2823.2V866.5H5134H3526.2V-1956.8z"/><path d="M8655.9-1956.8V-4780h622.1H9900v2823.2V866.5h-622.1h-622.1V-1956.8z"/><path d="M1114.5-521.2v-373.2h373.2h373.2v373.2V-148h-373.2h-373.2V-521.2z"/><path d="M1994.9-521.2v-373.2h373.2h373.2v373.2V-148h-373.2h-373.2V-521.2z"/></g></g>
</svg>